<svg xmlns="http://www.w3.org/2000/svg"><symbol id="velociraptor" viewBox="0 0 252 252"><path d="M125.8 0a125.5 125.5 0 1 0 125.5 125.5A125.5 125.5 0 0 0 125.8 0zm108.6 114.5h-7.3c-3 0-6-.2-9-.5l-9-.9-9-1a91 91 0 0 0-9.1-.4 123.8 123.8 0 0 0-16 1 70.2 70.2 0 0 0-15.7 3.6l-30.1 10.9a2.4 2.4 0 0 0-1.2 1.5 27.6 27.6 0 0 0-.8 2.7l-.6 2.8a8.1 8.1 0 0 1-.6 2 3.2 3.2 0 0 0 1.3 1.3 11.7 11.7 0 0 0 2.5 1.1l2.8 1.2a17.1 17.1 0 0 1 2.7 1.4 7.8 7.8 0 0 1 2.1 1.9 4.1 4.1 0 0 1 .8 2.4 1.7 1.7 0 0 1-.5 1.2l-1.2.9-1.6.7-1.5.8-1.3 1a2.4 2.4 0 0 0-.4 1.5 3.4 3.4 0 0 0 .8 2.5 5.8 5.8 0 0 0 1.9 1.5l2.3 1.4a6.8 6.8 0 0 1 2.1 1.7 14.5 14.5 0 0 1 2 3.4 26 26 0 0 1 1.3 3.6 23.2 23.2 0 0 1 .7 3.8c.2 1.3.1 2.6.3 3.9l1.3 1.3v7.1c0-.1.6-.1.8 0h1l1 .2.6.3v.8a4.1 4.1 0 0 1-.1 1 5.3 5.3 0 0 1-.3 1.2l-.6.9a1.1 1.1 0 0 1-.9.3h-5.1c-.2 0-.5-.5-1-.8l-1.5-.8a10.9 10.9 0 0 0-1.5-.8c-.5-.3-.9-.9-1.2-.9h-6a5 5 0 0 1 .6-2.9 4.6 4.6 0 0 1 1.6-1.5 8.3 8.3 0 0 1 2.1-.6l2.1-.4a3.8 3.8 0 0 0 1.6-.6 1.5 1.5 0 0 0 .6-1.3v-.7a14.4 14.4 0 0 1-.8-1.7c-.4-.8-.8-1.6-1.3-2.4l-1.5-2.4a10.1 10.1 0 0 0-1.5-1.8l-1.3-.8-1.9-.9-1.7-1.1a1.9 1.9 0 0 1-.9-1.1 16.3 16.3 0 0 1-1-2.9 16 16 0 0 0-1-3.1 6.9 6.9 0 0 0-1.7-2.6 3.9 3.9 0 0 0-2.9-1 19.5 19.5 0 0 0-5.9.8 23.2 23.2 0 0 0-5.7 2.2 23.8 23.8 0 0 0-4.9 3.4 21.1 21.1 0 0 0-3.9 4.5l-.3.2h-.2v-.2c-.1 0-.1-.1-.2-.3s-.1-.4-.2-.6-.1-.5-.1-.7l-.2-.3h-.3a1.3 1.3 0 0 0-1 .4 6.2 6.2 0 0 0-.9 1.2l-.8 1.3a3.9 3.9 0 0 1-.8 1 5.6 5.6 0 0 1-.7-1.7V163a12.7 12.7 0 0 1 .3-2.8l.9-2.8a12.5 12.5 0 0 0 .9-2.5 15.9 15.9 0 0 0 .4-2.8h-4.9c0-1.6.2-1.7.7-2.3a4.9 4.9 0 0 1 1.6-1.6 10.2 10.2 0 0 1 2.1-.9l2-.2h3l2.9.5 2.9.5 2.9.2h2.2a2.3 2.3 0 0 0-1.6-1.3 11.1 11.1 0 0 0-2.5-.5l-2.7-.2c-.9 0-1.6.2-2.2-.2l-3.8-2.1h-.3a16.3 16.3 0 0 0-3.1-.1 10.8 10.8 0 0 1-3.1.2 7.3 7.3 0 0 1-3-.7l-2.6-1.4-2.6-1.2a4.8 4.8 0 0 0-2.8-.6v6l1.6-.2.9-.3.9-.5.9-.7h.6v2.7l2-.7c0 .2.2.3.2.6s.1.3.1.4a5.6 5.6 0 0 1-1.3 3.9 17.8 17.8 0 0 1-3.2 2.8 21.6 21.6 0 0 0-4.5-1.2l-4.8-.7v-7.7l-1.7.6a7.5 7.5 0 0 0-2 1 8.6 8.6 0 0 0-1.9 1.1c-.5.4-.9.8-.9 1.2v6.8a9.3 9.3 0 0 0 2.9-.3l1.8-.6 1.2-.6 1.2-.2h.4a2.7 2.7 0 0 0 .3.8 8.3 8.3 0 0 1 .4 1.2 6.5 6.5 0 0 1 .4 1.3 5.1 5.1 0 0 1 .2.9 4.6 4.6 0 0 1-.4 1.9 8.7 8.7 0 0 1-1.1 1.8 4.7 4.7 0 0 1-1.5 1.3 3.1 3.1 0 0 1-1.8.5h-1l-3-.4a23.3 23.3 0 0 1-3.6-.8 11.2 11.2 0 0 1-3.2-1.2 2.5 2.5 0 0 1-1.4-2v-11.8l.9-.8 1.8-1.6 2.4-2.1 2.3-2.5a21.1 21.1 0 0 0 1.8-2.7 4.7 4.7 0 0 0 .7-2.5 3.5 3.5 0 0 0-1.1-2.7 9.5 9.5 0 0 0-2.8-2 18.7 18.7 0 0 0-3.2-1.5l-2.5-.8-1.3-9a16.8 16.8 0 0 0-.6-2.7 10.9 10.9 0 0 0-1.1-2.7 6.8 6.8 0 0 0-1.7-2.1 4 4 0 0 0-2.7-.9 12.3 12.3 0 0 0-3.5.5 13 13 0 0 0-3.2 1.5l-1.6 1-2.5 1.4-3 1.8-2.9 1.7-2.5 1.6c-.8.5-1.3 1.1-1.6 1.1h-1l-1.7-.2a7.8 7.8 0 0 1-2.1-.4 2.7 2.7 0 0 1-1.3-.7c-.5-.3-.4-.8-.4-1.4v-1.8c0-.6-.2-.9.1-.9h1.5v-.5c.1-.2.1-.5.2-.8s.1-.6.1-.8a1.8 1.8 0 0 0 .1-.5c-.3-.4-.5-.7-.8-.8l-.9-.5a2.3 2.3 0 0 1-.7-.7 1.7 1.7 0 0 1-.3-1.2 2.7 2.7 0 0 1 .3-1.2 2.6 2.6 0 0 1 .7-1.1c.2-.4.2-.7.6-.9l.8-.3v.8c0 .4.4.9.5 1.4a1.2 1.2 0 0 0 1.2.7 1.7 1.7 0 0 0 1.1-.4 5.4 5.4 0 0 0 .9-1.2 7.7 7.7 0 0 0 .7-1.6c.1-.4.2.3.2-1.3H20.7a1.5 1.5 0 0 1-.8-.5l-1-.7a1.8 1.8 0 0 1-.9-.8 1.3 1.3 0 0 1-.4-1 4.5 4.5 0 0 1 1-3.1 6.8 6.8 0 0 1 2.6-1.8l3.1-1a17.1 17.1 0 0 0 2.9-.8l2.1-.9 3.4-1.5 3.3-1.6c1-.5 1.7-1.1 2.1-1.1h13.5a7.2 7.2 0 0 1 3.8 1 14.2 14.2 0 0 1 3 2.5 20.4 20.4 0 0 1 2.5 3.3l2.3 3.2a19.4 19.4 0 0 0 2.2 2.5 3.6 3.6 0 0 0 2.5 1 .8.8 0 0 0 .8-.4c.1-.2.4-.3.8-.3l1.5.3 1.5.7 1.5.7a4 4 0 0 0 1.5.3l4.1-.2 4.1-.5 4-.4a27.3 27.3 0 0 1 4.1-.3c2.5 0 4.9.2 7.2.4a38 38 0 0 1 7.1 1.6c1.6.5 3.3 1.2 5 1.9l5 2.2a52.5 52.5 0 0 0 5.2 1.7 19 19 0 0 0 5.4.7h2.5l12.7-2.7c4.2-.8 8.5-1.6 12.7-2.2s8.4-1.2 12.7-1.6 8.6-.5 13-.5h8.7c1.8.1 3.5.7 5 .9l35.9 7.2h11.6c-.8 0-1.8 1-3.1 1.3a13.3 13.3 0 0 1-4 .2z"/></symbol><symbol id="brachiosaurus" viewBox="0 0 252 252"><path fill="#0056cb" d="M57.9 164.5a36.9 36.9 0 0 0-7.6.8v.2c0 .3.2.6.7.9l2 1.1 2.6.9 2.8.9 2.4.6 1.4.2h2.2l2.5-.4a15.7 15.7 0 0 0 2.3-.9 4.7 4.7 0 0 0 1.7-1.4 24.9 24.9 0 0 0-6.3-2.2 29.9 29.9 0 0 0-6.7-.7z"/><path d="M126.2 0A125.9 125.9 0 1 0 252 125.8 125.9 125.9 0 0 0 126.2 0zm82 69.4v.3a8.2 8.2 0 0 1-.1 1.4l-.3 2.1-.3 2.1c-.2.6-.2 1.1-.3 1.3l-.9 1.8-.6 2-.6 1.9a15.9 15.9 0 0 1-.7 2 21.4 21.4 0 0 1-1.7 3 21 21 0 0 0-1.5 3l-19.8 27.4-.2.6-.3.3-.3.2-.4.5-1.6 2.3-2.1 2.8-2.1 3.2a29 29 0 0 0-2 3.3 25.3 25.3 0 0 0-1.4 2.9 8 8 0 0 0-.5 2.3c0 .3-.2.5-.2.7s.2.4.2.7c-.2.1-.3.2-.3.4s.1.4.3.4v10.1a2.2 2.2 0 0 1-.3 1l-.3 1.1a6.7 6.7 0 0 0-.6 1.2c-.1.4-.5.8-.5 1.1v1.7a.3.3 0 0 1 0 .4l-.4.8-.7.8-.5.4v.4s.7.2.8.4.8.3.8.4v1.4a2.1 2.1 0 0 1 0 .8v.6a21.4 21.4 0 0 1-.6 3.5c-.2 1.1-.5 2.3-.7 3.4s-.5 2.4-.7 3.5a20.7 20.7 0 0 0-.3 3.5c0 2.1.1 4.2.3 6.2a40.9 40.9 0 0 0 1 6.1 35.4 35.4 0 0 0 2.2 5.7 21.8 21.8 0 0 0 3.3 5.2l-1.2.8-1.7.7-1.7.4a3.4 3.4 0 0 1-1.4.1h-.5l-1-.2-1.2-.3-.9-.2h-.8l-.7-.3-.6-.5a.9.9 0 0 1-.3-.7c.1-1.3.1-2.6.1-4l-.3-4.2c-.2-1.5-.3-2.9-.5-4.3s-.4-2.7-.5-4a.8.8 0 0 1-.2-.6q-.2-.6-.3-.6c.1-1.1.1-2.3.1-3.6a26.4 26.4 0 0 0-.1-4 25.7 25.7 0 0 0-.6-4 10.2 10.2 0 0 0-1.4-3.4 3.7 3.7 0 0 0-1.4 1.8 27.6 27.6 0 0 0-.8 2.7c-.2 1-.2 1.9-.4 2.9a11.8 11.8 0 0 0-.9 2.3v3.7a17.6 17.6 0 0 0 0 2.3v1.5c0 2.8-.2 5.5-.1 8.2s.2 5.4.5 8.1l.4.3.8.6.8.7c.3.3.4.4.4.6s-.3.5-.8.8l-1.9.9-2 .8-1.2.4h-.2l-4.7-2.5a.4.4 0 0 1-.2-.5v-.6a29.9 29.9 0 0 1 0-3 28.1 28.1 0 0 0 .1-3 23.1 23.1 0 0 0-.3-3.7l-.6-3.7-.6-3.7c-.1-1.3-.2-2.5-.2-3.9s0-2.3.1-3.3l.3-2.7.6-2.8c.1-1 .4-2 .6-3.2s0-.4 0-.7a2.5 2.5 0 0 1-.2-.7l-1.8.2-1.8.5-2 .7-1.8.5-1.4.2h-2l-1.1-.2h-7a44.3 44.3 0 0 0-5.2-.2h-2.4a3.5 3.5 0 0 0-2.3.9v5.1c0 1.7-.1 3.4-.2 5.1s-.2 3.3-.2 5-.2 3.4-.2 5.1v5.1c0 .5.7 1.1 1.1 1.6l1.4 1.7a9.4 9.4 0 0 1 1.2 1.8 3.7 3.7 0 0 1 .5 1.7v.3a7.8 7.8 0 0 1-4 .4c.1.5 0 .7-.3.8h-2.6l-2.3-.2a3.8 3.8 0 0 1-1.8-.9 2.1 2.1 0 0 1-.7-1.8 6.2 6.2 0 0 1 .1-1.3l.3-1.3.3-1.3a5.9 5.9 0 0 0 .2-1.3 23.4 23.4 0 0 0-.3-3.8c-.2-1.2-.4-2.4-.7-3.6s-.5-2.6-.8-3.8a27.8 27.8 0 0 1-.7-3.9h-.4c-.2 0-.4.7-.5.9a2.5 2.5 0 0 0-.4.7.9.9 0 0 0-.3.5l-1.6 2.3-1.4 2.2a25.6 25.6 0 0 0-1.1 2.4 8 8 0 0 0-.4 2.7 4.5 4.5 0 0 0 .3 1.6l.7 1.5a10.5 10.5 0 0 0 .8 1.1l.3.6a.8.8 0 0 1-.4.7 3.1 3.1 0 0 1-1 .5l-1.3.3h-2.6l-1.7-.2a1.8 1.8 0 0 1-1.1-.4 2.7 2.7 0 0 1-.7-.8 10.3 10.3 0 0 1-.5-1.6c-.2-.6-.3-1.1-.5-1.6a4.7 4.7 0 0 1-.3-1.7 2.7 2.7 0 0 1 .4-1.4l.9-1.6 1.1-1.6.8-1.4 2.4-5.9 2.5-5.8a1.6 1.6 0 0 1 .4-.7l.6-.7.4-.8a1.9 1.9 0 0 0 .2-.8c0-.4-.2-.6-.4-.6h-1.2l-8.9 2.4a3.2 3.2 0 0 1-1.3.5l-1.8.4a5.2 5.2 0 0 0-1.5.6 1 1 0 0 0-.7 1 2 2 0 0 0 .2.9l.7.7.8.5.7.6-.4.5-1.2-.9-1.4-.8-1.5-.6a3.9 3.9 0 0 0-1.5-.2 12.8 12.8 0 0 0-3.8.5l-3.9 1.1-4 1.1a15.1 15.1 0 0 1-4.2.5 17.7 17.7 0 0 1-3.4-.4 37 37 0 0 1-4.9-1.1c-1.7-.5-3.5-1-5.4-1.7a44.9 44.9 0 0 1-4.9-2.2 15.3 15.3 0 0 1-3.6-2.7 4.1 4.1 0 0 1-1.5-2.9 4.5 4.5 0 0 1 1.2-3.3 6.1 6.1 0 0 1 2.7-1.6 12.6 12.6 0 0 1 3.4-.1 28.8 28.8 0 0 1 3.3.3h4a2.2 2.2 0 0 1 1.2-.3 23.2 23.2 0 0 1 2.4.2l2.5.3 1.9.3a6.5 6.5 0 0 1 2 .5l1.7.8 1.8.8a6.9 6.9 0 0 0 2 .3 8.8 8.8 0 0 0 4-1 30.2 30.2 0 0 0 4-2.6 40.8 40.8 0 0 0 3.9-3.1l3.2-2.6 1.9-1.3 1.8-1.1a6.6 6.6 0 0 0 1.7-1.2 6.1 6.1 0 0 0 1.5-1.7 39.1 39.1 0 0 0 2.6-4.4 21.6 21.6 0 0 1 2.7-4.4 4 4 0 0 1 1.3-1.3l1.5-1 1.6-.9 1.6-.9 3.6-2.6 3.4-2.9 3.3-3 3.4-2.8a17.9 17.9 0 0 1 3.8-2.2l3.9-1.8 2.4-1.3 2.5-1.3 2.5-1.1a13.8 13.8 0 0 1 2.7-.8l22.1-3.2a11 11 0 0 0 3.5-1.1 17.2 17.2 0 0 0 3.3-2.2 27.9 27.9 0 0 0 3.2-2.8c1-1.1 1.9-2.2 2.9-3.2l2.6-3.2c.8-1.1 1.6-2 2.3-2.8l7.6-8.9.4-.3.5-.5.5-.5.3-.3 2-3.2c0-.1.1-.1.2-.2l.4-.2.4-.3h.2l.4-.4c.2-.3.3-.4.4-.4l1.2-1.7 1.4-2 1.3-1.9a14.7 14.7 0 0 0 .9-1.7 17.6 17.6 0 0 0 .9-2 17.2 17.2 0 0 1 .7-2.1l.7-2.2c.3-.7 1-1.5 1-2.2v-6a5.3 5.3 0 0 0-1.1-3.1 10.7 10.7 0 0 0-2.6-2.6A17.4 17.4 0 0 0 193 55a9.9 9.9 0 0 0-3.2-.6 26.2 26.2 0 0 0-5.7.6 12 12 0 0 0-5.1 2.7 9.2 9.2 0 0 0-1.4 1.4l-1.6 1.8-1.8 2a15.3 15.3 0 0 1-1.8 1.8 6.8 6.8 0 0 1-1.8 1.3 3 3 0 0 1-1.7.5 1.6 1.6 0 0 1-1.2-.4 1.8 1.8 0 0 1-.5-1.2v-.4a2 2 0 0 0 .1-.5 2.5 2.5 0 0 1 .2-.7c0-.3.1-.5.1-.8a1 1 0 0 0 .1-.4 4.3 4.3 0 0 0-.3-1.7 3.1 3.1 0 0 0-.6-1.3l-.5-1.2a2.8 2.8 0 0 1-.3-1.3c.4 0 .7 0 .9-.2l.4-.6.4-.8a2.8 2.8 0 0 1 .8-.6h2.8a1.3 1.3 0 0 0 1-.4 4.5 4.5 0 0 1 .7-.7h.3c.1 0 .2.2.3.4a.5.5 0 0 0 .2.4c0-.2.1-.3.4-.4l.6-.4 1.1-.6 1.3-.8 1.4-.8 1-.6.6-.4a13.5 13.5 0 0 1 2.1-1.3 5.8 5.8 0 0 1 1.7-.6l1.9-.2h6.4a4.7 4.7 0 0 0 1.5.6l1.5.3 1.5.3 1.6.5a13.7 13.7 0 0 1 4.5 3 15.3 15.3 0 0 1 3.1 4.1 17.6 17.6 0 0 1 1.8 5 24.6 24.6 0 0 1 .4 5.4v2.3z"/></symbol><symbol id="micropachycephalosaurus" viewBox="0 0 252 252"><path fill="#0056cb" d="M130.5 148.9c-.3 0-.4.2-.4.6h-.1a.5.5 0 0 0-.5.5c0 .4.2.6.5.6s.4-.2.4-.6h.1c.3 0 .5-.1.5-.5s-.2-.6-.5-.6zm1.4-.8l-.8.8h.3l1.1-.3a3 3 0 0 0 .8-.8h-.3zm3.1-2.5c-.3 0-.4.2-.4.5h-.2c-.3 0-.4.2-.4.6h-.1c-.3 0-.5.2-.5.6s.2.5.5.5.4-.1.4-.5h.1c.3 0 .5-.2.5-.6h.1c.3 0 .5-.2.5-.6a.5.5 0 0 0-.5-.5zm23-5.9l-1.3 1.4a2.6 2.6 0 0 0 .8 1.1l1.2.2a2.1 2.1 0 0 0 1.3-.5 4.1 4.1 0 0 0 1.1-1.2l.8-1.5c.2-.5.3-1.1.4-1.1H159c-.2 0-.5 1-1 1.6z"/><path d="M126 0a126 126 0 1 0 126 126A126 126 0 0 0 126 0zm94.5 74.7a4.2 4.2 0 0 1-1.6.4h-3.6l-5.2 1.2a20.4 20.4 0 0 0-3.6 1.6 8.8 8.8 0 0 0-2.5 2.2 13.1 13.1 0 0 0-1.7 2.9c-.5 1.1-1 2.4-1.5 3.8l-1.6 5c-.4 1.2-.8 2.4-1.2 3.4a30.5 30.5 0 0 1-1.3 3.2c-.4 1-.9 2-1.4 3.1l-1.7 3.2a31 31 0 0 1-2.7 4c-.9 1.3-1.9 2.5-2.9 3.7l-3.1 3.5-3.1 3.8a11.1 11.1 0 0 0-1.3 2.7l-1 2.5a9.8 9.8 0 0 1-1.3 2.2 6.7 6.7 0 0 1-2.5 1.6l-1.3.5-2 .7-2 .6-1.4.4a3 3 0 0 1 .2 2 2 2 0 0 1-.9.9l-1.2.6a1.8 1.8 0 0 0-.9 1L164 142a3.1 3.1 0 0 1-1 1.5 6.1 6.1 0 0 1-1.8.9 12.3 12.3 0 0 1-2 .2l-1.8-.2h-.9c-.4 0-.8.2-1.1.1s-.4-.4-.4-.9a.4.4 0 0 1 .1-.3c.1-.1.2-.2.2-.3l.3-.3c0-.1.1-.2.1-.4-.1 0-.1-.1-.1-.2l-3.4 1.7-3.3 2-3.3 2.2-3.3 1.9-.9.5-1.1.5-1 .8a1.6 1.6 0 0 0-.5 1c0 .1.1.2.1.4v.2l1.8 1.6a15.4 15.4 0 0 0 1.9 1.7 15.6 15.6 0 0 0 2 1.6l2.1 1.3 1.8.6 1.9.6a6 6 0 0 1 1.9.6 5.1 5.1 0 0 1 1.6.9 6.2 6.2 0 0 1 1.4 1.4l1.1 1.5a7.6 7.6 0 0 0 1.1 1.4 6.4 6.4 0 0 0 1.5 1.3l1.6.6 2.1.6a9.5 9.5 0 0 1 1.7 1 2 2 0 0 1 .8 1.7.4.4 0 0 1-.1.3v.2l-5.6 1.2-1.1.4-1.1.2h-.6l-1.1-.7-1.7-1-1.7-1c-.5-.3-.9-.5-1-.7l-.2-.2-.3-.5-.4-.6a.8.8 0 0 1-.2-.4l-2.3-4.5-1.1-.4-1.8-.8-2.1-.9-2.1-.9-1.8-.8-1.1-.6-2.8-1.6a17.1 17.1 0 0 1-2.6-2.1 18.9 18.9 0 0 1-2-2.7 8.7 8.7 0 0 1-1-3.1l-.5.2-.6.4-.9.6-1.7 1.2-2.1 1.4-2.1 1.3-1.7 1.1-1 .5-5.9 3.5a26.5 26.5 0 0 0-4.5 3.4 17.3 17.3 0 0 0-3.6 4.4c-.9 1.7-.7 3.9-2.4 6.6v.2c0 .1.1.2 0 .4v.9a10 10 0 0 0 1.2 4.4 6.9 6.9 0 0 0 2.1 2.6 8.2 8.2 0 0 0 2.6 1.4l2.5.9a7.5 7.5 0 0 1 2 1 5.3 5.3 0 0 1 .8 2h-13.2l-.2-.4c-.1-.2-.2-.1-.4-.2h-.4l-.7-.4a2.6 2.6 0 0 1-1.2-1.5 12.9 12.9 0 0 1-.5-2.1c0-.8.2-1.6.2-2.3a21.1 21.1 0 0 0 .3-2.1v-1.4a8.2 8.2 0 0 1 .3-1.8c.2-.8.3-1.6.5-2.6s.5-2.1.8-3.2.6-2.1.8-3.1.5-1.9.7-2.6l.4-1.8.6-2c.3-.5.6-1.2 1-1.8a16.1 16.1 0 0 0 4.5-2.6 24.2 24.2 0 0 0 3.2-3.2c1-1.2 2-2.3 2.9-3.5a16.6 16.6 0 0 1 3.4-3l1.4-.7 2.1-.8 2.3-1 2.1-1.1 1.6-1.3a2.2 2.2 0 0 0 .6-1.5c0-.5-.1-.9-.1-1.3a1.4 1.4 0 0 0-.6-1.2l-.7-.3-1.2-.6-1.2-.5-.8-.3-2-1.2-2.6-1.9a25.6 25.6 0 0 0-2.5-1.6 3 3 0 0 0-1.7-.5h-7.9c-5.9 0-11.7-.1-17.5.1s-11.6.2-17.5.2c-4.3 0-8.6-.2-12.7-.4a121.8 121.8 0 0 1-12.3-1.3 93.9 93.9 0 0 1-11.9-2.9 83.9 83.9 0 0 1-11.7-5l-1.4-.8-1.6-1a5 5 0 0 1-1.3-1.2 2.4 2.4 0 0 1-.5-1.6 5.9 5.9 0 0 1 2.1.4l2.3.9 2.2 1 1.5.6c1.4.6 3 1.1 4.6 1.6l5 1.5 5.1 1 4.8.3H71l2.5-.4 3.3-.5 3.6-.6 3.4-.6 2.7-.6 6.8-1.3c2.4-.4 4.9-1 7.3-1.6s4.8-1.3 7.2-2.1a65 65 0 0 0 6.6-2.7l3.8-1.8 3.7-1.6 3.9-1.3a25.9 25.9 0 0 1 4.2-.9h2.8l1.7-.2 1.1-.2 1.8-.3 3.4-.7 4-.9 4-.9c1.2-.3 2.3-.9 3.3-1.1s1.5-.8 1.8-.8h6.5c2.7 0 5.4.5 7.9.7a66.5 66.5 0 0 0 7.8.6 10.1 10.1 0 0 0 5-1.3 18.3 18.3 0 0 0 4.5-3.5 33.3 33.3 0 0 0 3.8-4.9 44.8 44.8 0 0 0 3.2-5.6 54 54 0 0 0 2.6-5.5c.7-1.8 1.3-3.4 1.7-4.8a26.7 26.7 0 0 0 1.1-3.4c.4-1.1.7-2.2 1-3.1s.8-1.8 1.2-2.6a7 7 0 0 1 1.8-2 6.8 6.8 0 0 1 2.6-1.6 12.7 12.7 0 0 1 3.7-.8h3.1c.7 1.7 1.7.9 2.9 1.3a28.3 28.3 0 0 1 3.6 1.6 11.9 11.9 0 0 1 2.9 1.8 2.7 2.7 0 0 1 1.3 2.1 2 2 0 0 1-.5 1.4 2.8 2.8 0 0 1-1.1.5z"/></symbol></svg>